<?xml version="1.0" standalone="no"?>
<svg xmlns="http://www.w3.org/2000/svg" xmlns:xlink="http://www.w3.org/1999/xlink" style="isolation:isolate" viewBox="0 0 38 38" width="38" height="38">
  <defs>
    <clipPath id="_clipPath_ywKAEN0MtIlkeqgC7J1XHnyGwpwXJB89"><rect width="38" height="38"/></clipPath>
  </defs>
  <g clip-path="url(#_clipPath_ywKAEN0MtIlkeqgC7J1XHnyGwpwXJB89)">
    <clipPath id="_clipPath_B7m5I1CdfXPI75OHeLoT7DfA4XVbfcLZ"><rect x="0" y="0" width="38" height="38" transform="matrix(1,0,0,1,0,0)" fill="rgb(255,255,255)"/></clipPath>
    <g clip-path="url(#_clipPath_B7m5I1CdfXPI75OHeLoT7DfA4XVbfcLZ)">
      <g id="Group">
        <g id="Group">
          <g id="Group"><path d=" M 19.2 6.5 C 19.5 6.1 20 6.1 20.3 6.5 C 20.7 6.8 20.7 7.3 20.3 7.6 L 6.7 21.2 C 6.4 21.6 5.9 21.6 5.6 21.2 C 5.2 20.9 5.2 20.4 5.6 20.1 L 19.2 6.5 Z " fill="rgb(70,70,70)"/><path d=" M 18.9 7.1 C 18.9 6.6 19.3 6.2 19.7 6.2 C 20.2 6.2 20.6 6.6 20.6 7.1 L 20.6 20.3 L 33.3 32.3 C 33.6 32.6 33.6 33.2 33.3 33.5 C 33 33.8 32.4 33.9 32.1 33.5 L 18.9 21 L 18.9 7.1 Z " fill="rgb(70,70,70)"/><path d=" M 5.3 20.7 C 5.3 20.2 5.7 19.8 6.1 19.8 C 6.6 19.8 7 20.2 7 20.7 L 7 32.9 C 7 33.4 6.6 33.8 6.1 33.8 C 5.7 33.8 5.3 33.4 5.3 32.9 L 5.3 20.7 Z " fill="rgb(70,70,70)"/><path d=" M 18.9 32.9 L 18.9 20.7 C 18.9 20.2 19.3 19.8 19.7 19.8 C 20.2 19.8 20.6 20.2 20.6 20.7 L 20.6 32.9 C 20.6 33.4 20.2 33.8 19.7 33.8 C 19.3 33.8 18.9 33.4 18.9 32.9 Z " fill="rgb(70,70,70)"/></g><path d=" M 14.273 7.059 C 14.273 4.129 16.651 1.751 19.58 1.751 C 22.51 1.751 24.888 4.129 24.888 7.059 C 24.888 9.988 22.51 12.366 19.58 12.366 C 16.651 12.366 14.273 9.988 14.273 7.059 Z " fill="rgb(206,17,37)"/>
          <g id="Group"><path
            d=" M 13.4 7.1 C 13.4 5.4 14.1 3.9 15.2 2.7 C 16.4 1.6 18 0.9 19.6 0.9 C 21.2 0.9 22.8 1.6 23.9 2.7 C 25.1 3.9 25.7 5.4 25.7 7.1 C 25.7 8.7 25.1 10.2 23.9 11.4 C 22.8 12.5 21.2 13.2 19.6 13.2 C 18 13.2 16.4 12.5 15.2 11.4 C 14.1 10.2 13.4 8.7 13.4 7.1 Z  M 15.1 7.1 C 15.1 5.9 15.6 4.7 16.4 3.9 C 17.3 3.1 18.4 2.6 19.6 2.6 C 20.8 2.6 21.9 3.1 22.7 3.9 C 23.6 4.7 24.1 5.9 24.1 7.1 C 24.1 8.2 23.6 9.4 22.7 10.2 C 21.9 11.1 20.8 11.5 19.6 11.5 C 18.4 11.5 17.3 11.1 16.4 10.2 C 15.6 9.4 15.1 8.2 15.1 7.1 Z "
            fill-rule="evenodd"
            fill="rgb(255,255,255)"/><path
            d=" M 13.9 7.1 C 13.9 5.6 14.5 4.1 15.6 3.1 C 16.6 2 18.1 1.4 19.6 1.4 C 21.1 1.4 22.5 2 23.6 3.1 C 24.6 4.1 25.2 5.6 25.2 7.1 C 25.2 8.6 24.6 10 23.6 11 C 22.5 12.1 21.1 12.7 19.6 12.7 C 18.1 12.7 16.6 12.1 15.6 11 C 14.5 10 13.9 8.6 13.9 7.1 Z  M 14.6 7.1 C 14.6 5.7 15.1 4.5 16.1 3.5 C 17 2.6 18.3 2.1 19.6 2.1 C 20.9 2.1 22.2 2.6 23.1 3.5 C 24 4.5 24.6 5.7 24.6 7.1 C 24.6 8.4 24 9.6 23.1 10.6 C 22.2 11.5 20.9 12 19.6 12 C 18.3 12 17 11.5 16.1 10.6 C 15.1 9.6 14.6 8.4 14.6 7.1 Z "
            fill-rule="evenodd"
            fill="rgb(46,46,46)"/></g><path d=" M 15.268 20.327 C 15.268 17.947 17.201 16.015 19.58 16.015 C 21.96 16.015 23.893 17.947 23.893 20.327 C 23.893 22.707 21.96 24.639 19.58 24.639 C 17.201 24.639 15.268 22.707 15.268 20.327 Z " fill="rgb(0,56,146)"/>
          <g id="Group"><path
            d=" M 14.4 20.3 C 14.4 19 15 17.7 15.9 16.7 C 16.9 15.7 18.2 15.2 19.6 15.2 C 20.9 15.2 22.3 15.7 23.2 16.7 C 24.2 17.7 24.7 19 24.7 20.3 C 24.7 21.7 24.2 23 23.2 24 C 22.3 24.9 20.9 25.5 19.6 25.5 C 18.2 25.5 16.9 24.9 15.9 24 C 15 23 14.4 21.7 14.4 20.3 Z  M 16.1 20.3 C 16.1 19.4 16.5 18.5 17.1 17.9 C 17.8 17.2 18.7 16.8 19.6 16.8 C 20.5 16.8 21.4 17.2 22 17.9 C 22.7 18.5 23.1 19.4 23.1 20.3 C 23.1 21.3 22.7 22.1 22 22.8 C 21.4 23.4 20.5 23.8 19.6 23.8 C 18.7 23.8 17.8 23.4 17.1 22.8 C 16.5 22.1 16.1 21.3 16.1 20.3 Z "
            fill-rule="evenodd"
            fill="rgb(255,255,255)"/><path
            d=" M 14.9 20.3 C 14.9 19.1 15.4 17.9 16.3 17 C 17.2 16.2 18.3 15.7 19.6 15.7 C 20.8 15.7 22 16.2 22.9 17 C 23.7 17.9 24.2 19.1 24.2 20.3 C 24.2 21.6 23.7 22.7 22.9 23.6 C 22 24.5 20.8 25 19.6 25 C 18.3 25 17.2 24.5 16.3 23.6 C 15.4 22.7 14.9 21.6 14.9 20.3 Z  M 15.6 20.3 C 15.6 19.3 16 18.3 16.8 17.5 C 17.5 16.8 18.5 16.3 19.6 16.3 C 20.6 16.3 21.6 16.8 22.4 17.5 C 23.1 18.3 23.6 19.3 23.6 20.3 C 23.6 21.4 23.1 22.4 22.4 23.1 C 21.6 23.9 20.6 24.3 19.6 24.3 C 18.5 24.3 17.5 23.9 16.8 23.1 C 16 22.4 15.6 21.4 15.6 20.3 Z "
            fill-rule="evenodd"
            fill="rgb(46,46,46)"/></g><path d=" M 16.263 32.932 C 16.263 31.101 17.75 29.615 19.58 29.615 C 21.411 29.615 22.898 31.101 22.898 32.932 C 22.898 34.762 21.411 36.249 19.58 36.249 C 17.75 36.249 16.263 34.762 16.263 32.932 Z " fill="rgb(206,17,37)"/>
          <g id="Group"><path
            d=" M 15.4 32.9 C 15.4 31.8 15.9 30.8 16.6 30 C 17.4 29.2 18.5 28.8 19.6 28.8 C 20.7 28.8 21.7 29.2 22.5 30 C 23.3 30.8 23.7 31.8 23.7 32.9 C 23.7 34 23.3 35.1 22.5 35.9 C 21.7 36.6 20.7 37.1 19.6 37.1 C 18.5 37.1 17.4 36.6 16.6 35.9 C 15.9 35.1 15.4 34 15.4 32.9 Z  M 17.1 32.9 C 17.1 32.3 17.4 31.6 17.8 31.2 C 18.3 30.7 18.9 30.4 19.6 30.4 C 20.9 30.4 22.1 31.6 22.1 32.9 C 22.1 34.3 20.9 35.4 19.6 35.4 C 18.9 35.4 18.3 35.2 17.8 34.7 C 17.4 34.2 17.1 33.6 17.1 32.9 Z "
            fill-rule="evenodd"
            fill="rgb(255,255,255)"/><path
            d=" M 15.9 32.9 C 15.9 32 16.3 31 17 30.4 C 17.7 29.7 18.6 29.3 19.6 29.3 C 20.5 29.3 21.5 29.7 22.2 30.4 C 22.8 31 23.2 32 23.2 32.9 C 23.2 33.9 22.8 34.8 22.2 35.5 C 21.5 36.2 20.5 36.6 19.6 36.6 C 18.6 36.6 17.7 36.2 17 35.5 C 16.3 34.8 15.9 33.9 15.9 32.9 Z  M 16.6 32.9 C 16.6 32.1 16.9 31.4 17.5 30.8 C 18 30.3 18.8 29.9 19.6 29.9 C 21.2 29.9 22.6 31.3 22.6 32.9 C 22.6 34.6 21.2 35.9 19.6 35.9 C 18.8 35.9 18 35.6 17.5 35 C 16.9 34.5 16.6 33.7 16.6 32.9 Z "
            fill-rule="evenodd"
            fill="rgb(46,46,46)"/></g><path d=" M 29.366 32.932 C 29.366 31.101 30.852 29.615 32.683 29.615 C 34.514 29.615 36 31.101 36 32.932 C 36 34.762 34.514 36.249 32.683 36.249 C 30.852 36.249 29.366 34.762 29.366 32.932 Z " fill="rgb(206,17,37)"/>
          <g id="Group"><path
            d=" M 32.7 28.8 C 33.8 28.8 34.8 29.2 35.6 30 C 36.4 30.8 36.8 31.8 36.8 32.9 C 36.8 34 36.4 35.1 35.6 35.9 C 34.8 36.6 33.8 37.1 32.7 37.1 C 31.6 37.1 30.5 36.6 29.8 35.9 C 29 35.1 28.5 34 28.5 32.9 C 28.5 31.8 29 30.8 29.8 30 C 30.5 29.2 31.6 28.8 32.7 28.8 Z  M 35.2 32.9 C 35.2 34.3 34 35.4 32.7 35.4 C 32 35.4 31.4 35.2 30.9 34.7 C 30.5 34.2 30.2 33.6 30.2 32.9 C 30.2 32.3 30.5 31.6 30.9 31.2 C 31.4 30.7 32 30.4 32.7 30.4 C 34 30.4 35.2 31.6 35.2 32.9 Z "
            fill-rule="evenodd"
            fill="rgb(255,255,255)"/><path
            d=" M 29 32.9 C 29 32 29.4 31 30.1 30.4 C 30.8 29.7 31.7 29.3 32.7 29.3 C 33.7 29.3 34.6 29.7 35.3 30.4 C 35.9 31 36.3 32 36.3 32.9 C 36.3 33.9 35.9 34.8 35.3 35.5 C 34.6 36.2 33.7 36.6 32.7 36.6 C 31.7 36.6 30.8 36.2 30.1 35.5 C 29.4 34.8 29 33.9 29 32.9 Z  M 35.7 32.9 C 35.7 33.7 35.4 34.5 34.8 35 C 34.2 35.6 33.5 35.9 32.7 35.9 C 31.9 35.9 31.1 35.6 30.6 35 C 30 34.5 29.7 33.7 29.7 32.9 C 29.7 32.1 30 31.4 30.6 30.8 C 31.1 30.3 31.9 29.9 32.7 29.9 C 34.3 29.9 35.7 31.3 35.7 32.9 Z "
            fill-rule="evenodd"
            fill="rgb(46,46,46)"/></g><path d=" M 2.829 32.932 C 2.829 31.101 4.316 29.615 6.146 29.615 C 7.977 29.615 9.463 31.101 9.463 32.932 C 9.463 34.762 7.977 36.249 6.146 36.249 C 4.316 36.249 2.829 34.762 2.829 32.932 Z " fill="rgb(206,17,37)"/>
          <g id="Group"><path
            d=" M 6.1 28.8 C 7.2 28.8 8.3 29.2 9.1 30 C 9.9 30.8 10.3 31.8 10.3 32.9 C 10.3 34 9.9 35.1 9.1 35.9 C 8.3 36.6 7.2 37.1 6.1 37.1 C 5 37.1 4 36.6 3.2 35.9 C 2.4 35.1 2 34 2 32.9 C 2 31.8 2.4 30.8 3.2 30 C 4 29.2 5 28.8 6.1 28.8 Z  M 6.1 35.4 C 4.8 35.4 3.7 34.3 3.7 32.9 C 3.7 31.6 4.8 30.4 6.1 30.4 C 7.5 30.4 8.6 31.6 8.6 32.9 C 8.6 34.3 7.5 35.4 6.1 35.4 Z "
            fill-rule="evenodd"
            fill="rgb(255,255,255)"/><path
            d=" M 6.1 29.3 C 7.1 29.3 8 29.7 8.7 30.4 C 9.4 31 9.8 32 9.8 32.9 C 9.8 33.9 9.4 34.8 8.7 35.5 C 8 36.2 7.1 36.6 6.1 36.6 C 5.2 36.6 4.3 36.2 3.6 35.5 C 2.9 34.8 2.5 33.9 2.5 32.9 C 2.5 32 2.9 31 3.6 30.4 C 4.3 29.7 5.2 29.3 6.1 29.3 Z  M 6.1 35.9 C 4.5 35.9 3.2 34.6 3.2 32.9 C 3.2 31.3 4.5 29.9 6.1 29.9 C 7.8 29.9 9.1 31.3 9.1 32.9 C 9.1 34.6 7.8 35.9 6.1 35.9 Z "
            fill-rule="evenodd"
            fill="rgb(46,46,46)"/></g><path d=" M 2 20.327 C 2 17.947 3.932 16.015 6.312 16.015 C 8.692 16.015 10.624 17.947 10.624 20.327 C 10.624 22.707 8.692 24.639 6.312 24.639 C 3.932 24.639 2 22.707 2 20.327 Z " fill="rgb(0,56,146)"/>
          <g id="Group"><path
            d=" M 1.2 20.3 C 1.2 19 1.7 17.7 2.7 16.7 C 3.6 15.7 4.9 15.2 6.3 15.2 C 7.7 15.2 9 15.7 9.9 16.7 C 10.9 17.7 11.5 19 11.5 20.3 C 11.5 21.7 10.9 23 9.9 24 C 9 24.9 7.7 25.5 6.3 25.5 C 4.9 25.5 3.6 24.9 2.7 24 C 1.7 23 1.2 21.7 1.2 20.3 Z  M 2.8 20.3 C 2.8 19.4 3.2 18.5 3.8 17.9 C 4.5 17.2 5.4 16.8 6.3 16.8 C 7.2 16.8 8.1 17.2 8.8 17.9 C 9.4 18.5 9.8 19.4 9.8 20.3 C 9.8 21.3 9.4 22.1 8.8 22.8 C 8.1 23.4 7.2 23.8 6.3 23.8 C 5.4 23.8 4.5 23.4 3.8 22.8 C 3.2 22.1 2.8 21.3 2.8 20.3 Z "
            fill-rule="evenodd"
            fill="rgb(255,255,255)"/><path
            d=" M 1.7 20.3 C 1.7 19.1 2.2 17.9 3 17 C 3.9 16.2 5.1 15.7 6.3 15.7 C 7.5 15.7 8.7 16.2 9.6 17 C 10.5 17.9 11 19.1 11 20.3 C 11 21.6 10.5 22.7 9.6 23.6 C 8.7 24.5 7.5 25 6.3 25 C 5.1 25 3.9 24.5 3 23.6 C 2.2 22.7 1.7 21.6 1.7 20.3 Z  M 2.3 20.3 C 2.3 19.3 2.8 18.3 3.5 17.5 C 4.2 16.8 5.3 16.3 6.3 16.3 C 7.4 16.3 8.4 16.8 9.1 17.5 C 9.9 18.3 10.3 19.3 10.3 20.3 C 10.3 21.4 9.9 22.4 9.1 23.1 C 8.4 23.9 7.4 24.3 6.3 24.3 C 5.3 24.3 4.2 23.9 3.5 23.1 C 2.8 22.4 2.3 21.4 2.3 20.3 Z "
            fill-rule="evenodd"
            fill="rgb(46,46,46)"/></g>
        </g>
      </g>
    </g>
  </g>
</svg>
