<svg width="171.92" xmlns="http://www.w3.org/2000/svg" viewBox="283.436 49.549 171.91585 39.799999" enable-background="new 283.436 49.549 240.767 40"><g fill="#0c2e82" transform="translate(-.002-.001)"><path d="m443.15 76.13c-4.883 0-7.934-3.931-7.934-8.611 0-4.677 3.116-8.68 7.797-8.68 2.236 0 4.682 1.089 5.899 2.715l6.442-7.459c-2.646-2.713-7.727-4.543-12.543-4.543-10.507 0-18.853 6.984-18.853 17.966 0 11.192 8.276 17.972 18.922 17.972 4.949 0 9.695-1.627 12.474-4.344l-6.169-7.522c-1.355 1.628-3.8 2.506-6.04 2.506"/><path d="m407.67 50.634h11.125v33.767h-11.125z"/><path d="m302.49 58.841c2.24 0 4.678 1.084 5.901 2.708l6.44-7.456c-2.644-2.713-7.73-4.543-12.543-4.543-10.513 0-18.852 6.984-18.852 17.971 0 11.184 8.272 17.966 18.92 17.966 4.948 0 9.697-1.628 12.476-4.336l-6.17-7.533c-1.358 1.628-3.796 2.513-6.04 2.513-4.878 0-7.933-3.934-7.933-8.61-.001-4.682 3.121-8.68 7.797-8.68"/><path d="m389.1 49.684c-4.677 0-8.54 2.645-10.1 5.626h-.133v-4.677h-10.786v19.299c2.48 2.635 4.04 6.188 4.04 10.166 0 1.504-.228 2.947-.637 4.303h7.789v-18.307c0-3.867 2.033-7.258 5.967-7.258 4 0 5.02 3.391 5.02 7.121v18.444h11.197v-20.883c0-6.782-3.256-13.834-12.35-13.834"/><path d="m342.49 80.25c0-1.546.244-3.045.693-4.457h-12.278l16.346-16.816v-8.341h-28.82v8.543h15.258l-15.865 16.546v8.68h25.278c-.391-1.31-.612-2.7-.612-4.155"/></g><path fill="#e80016" d="m357.39 89.35c-5.04 0-9.349-3.964-9.349-9.164 0-5.098 4.218-9.35 9.349-9.35 4.947 0 9.166 4.065 9.166 9.26.001 5.196-4.219 9.254-9.166 9.254"/></svg>
