<svg xmlns="http://www.w3.org/2000/svg" viewBox="0 0 585.34668 159.86667">
  <path fill="#231f20" d="M267.06532666 84.18960523h-2.9306666V68.34693895h-.056l-6.26799984 7.87333314h-.47466665l-6.26133318-7.87333314h-.06133333v15.84266628h-2.92533326V63.8442724h2.74399993l6.74533316 8.3499998 6.7746665-8.3499998h2.71333327v20.34533283m8.84933311 0h-2.9306666V63.8442724h2.9306666v20.34533283m24.82666604 0h-2.50799993l-13.61066633-15.66306628v15.66306628h-2.7386666V63.8442724h2.32666661l13.78399966 15.7535996V63.8442724h2.7466666v20.34533283m8.93199978 0h-2.92133327V63.8442724h2.92133326v20.34533283m15.67599961-15.87599961c-1.73866662-1.63759996-3.40533325-2.11826661-4.77599988-2.11826661-1.88533329 0-3.22533325.98906664-3.22533325 2.41719994 0 3.90826657 8.80266644 3.85053324 8.80266644 10.3254664 0 3.19319993-2.4186666 5.5161332-5.69599985 5.5161332-2.21199995 0-3.9999999-.59106665-5.70399986-1.87546662v-3.6983999c1.49466663 1.90879995 3.37199991 2.95199992 5.3733332 2.95199992 2.2666666 0 3.30933325-1.4333333 3.30933325-2.5634666 0-4.2067999-8.79866645-4.68706655-8.79866645-10.27146641 0-3.30719992 2.44799994-5.4285332 6.18266651-5.4285332 1.54799996 0 3.09599993.47813332 4.53199989 1.4353333v3.30946658m20.76799948-1.84853328h-7.03599982v17.72453289h-2.92533326v-17.7245329h-7.0426665V63.8442724h17.00399958v2.62079994m15.79866627 0h-8.62133312v6.1474665h8.3239998v2.6218666h-8.3239998v6.32813318h8.88666645v2.6270666h-11.8079997V63.8442724h11.54266637v2.62079994m7.85599981 6.26359984h1.87866662c3.13199992 0 4.0319999-1.61039996 3.99733323-3.31199992-.02666667-1.90626662-1.1613333-3.07453326-3.99733323-3.07453326h-1.87866662zm2.21199994-8.88439978c4.11333323 0 6.6866665 2.16933328 6.6866665 5.69066652 0 2.35879995-1.2293333 4.12186657-3.40933325 4.98853321 1.85466662 1.2213333 2.9826666 3.10199993 4.54266655 5.6385332.86266665 1.4005333 1.3653333 2.08799994 2.77333327 4.0275999h-3.49333325l-2.6866666-4.1791999c-2.68399993-4.17653323-3.90933323-4.65253322-5.39866653-4.65253322h-1.22666663v8.83173312h-2.91999993V63.8442724h5.13199987m23.9959994 4.46933322c-1.72666662-1.63759996-3.39866658-2.11826661-4.77333321-2.11826661-1.88266662 0-3.21999992.98906664-3.21999992 2.41719994 0 3.90826657 8.80399978 3.85053324 8.80399978 10.3254664 0 3.19319993-2.4186666 5.5161332-5.7053332 5.5161332-2.2026666 0-3.9919999-.59106665-5.69733318-1.87546662v-3.6983999c1.49866662 1.90879995 3.37599991 2.95199992 5.3773332 2.95199992 2.26533327 0 3.30799991-1.4333333 3.30799991-2.5634666 0-4.2067999-8.80266645-4.68706655-8.80266645-10.27146641 0-3.30719992 2.45066661-5.4285332 6.17866652-5.4285332 1.54399996 0 3.10399992.47813332 4.53066655 1.4353333v3.30946658m20.77866615-1.84853328h-7.0346665v17.72453289h-2.92799992v-17.7245329h-7.04399982V63.8442724h17.00666624v2.62079994m11.40799971 17.90106621h-.59599998L418.7706562 63.8442724h2.9226666l6.11333317 14.28693298 6.08933318-14.28693298h2.89733326l-8.62666645 20.52186615m21.20399947-2.5942666c4.56666655 0 7.93333314-3.30879991 7.93333314-7.7587998 0-4.47813323-3.36666659-7.75426648-7.93333314-7.75426648-4.53733322 0-7.90933313 3.27613325-7.90933313 7.75426648 0 4.44999989 3.37199991 7.7587998 7.90933313 7.7587998zm0-18.2030662c6.70933317 0 10.95199973 4.7781332 10.95199973 10.4442664 0 5.48906653-4.11866657 10.4410664-11.01333306 10.4410664-6.65333317 0-10.86133306-4.9197332-10.86133306-10.4410664 0-5.64066653 4.3239999-10.4442664 10.9226664-10.4442664m33.12266583 20.7973328h-.59199998L473.1013215 63.8442724h2.91999992l6.11866652 14.28693298 6.08933318-14.28693298h2.89333326l-8.62933312 20.52186615m31.19733256-.17653332h-2.5066666l-13.609333-15.66306628v15.66306628h-2.74133326V63.8442724h2.32666661L510.9426539 79.597872V63.8442724h2.74799993v20.34533283m8.9373331 0h-2.92399992V63.8442724h2.92399992v20.34533283m21.27466614-17.72453289h-7.0346665v17.72453289h-2.92799992v-17.7245329h-7.04399982V63.8442724h17.00666624v2.62079994m7.23333315 6.26359984h1.88133329c3.13066659 0 4.02533323-1.61039996 3.99466656-3.31199992-.024-1.90626662-1.1573333-3.07453326-3.99466656-3.07453326h-1.88133329zm2.21066661-8.88439978c4.11466657 0 6.68799984 2.16933328 6.68799984 5.69066652 0 2.35879995-1.22666664 4.12186657-3.40666659 4.98853321 1.85066662 1.2213333 2.9826666 3.10199993 4.53866656 5.6385332.85999998 1.4005333 1.3693333 2.08799994 2.77333326 4.0275999h-3.4919999l-2.6866666-4.1791999c-2.68399993-4.17653323-3.90933324-4.65253322-5.39866653-4.65253322h-1.22666664v8.83173312h-2.92533326V63.8442724h5.13599987m18.77599952 11.72346637h6.33199985l-3.28666659-7.37453314zm13.21866634 8.62186646h-2.97999993l-2.71599993-5.99946652h-8.65333311l-2.5666666 5.99946652h-2.9826666l8.74133312-20.4671995h2.05599994l9.10133311 20.4671995M256.74266025 98.68120486l-3.57999991-3.49159991h1.79199995l3.42266658 1.87919995 3.43866658-1.87919995h1.7853333l-3.57999992 3.49159991zm8.73999978 5.51986653c-2.50533327-1.4609333-4.65466655-2.11933328-7.0106665-2.11933328-4.65999988 0-8.12266646 3.31199992-8.12266646 7.79066647 0 4.56306656 3.34399992 7.72346648 8.24133313 7.72346648 2.29999994 0 4.80266655-.80159998 7.10133316-2.29586661v3.19266658c-2.00533329 1.04013331-4.17733323 1.7901333-7.36933315 1.7901333-7.63866648 0-10.98133306-5.87759986-10.98133306-10.14786642 0-6.20213318 4.68799988-10.73853306 11.15999972-10.73853306 2.09066662 0 4.2079999.50826665 6.98133316 1.66919995v3.1354666m16.84133291-1.91146663h-8.62133312v6.15106652h8.3239998v2.61919993h-8.3239998v6.33333318h8.88666645v2.6198666h-11.8119997V99.66453817h11.54666637v2.6250666m14.53999964 1.85106663c-1.73066662-1.6417333-3.40266658-2.12453329-4.77333322-2.12453329-1.87866662 0-3.22133325.98906664-3.22133325 2.42453328 0 3.9035999 8.79999978 3.84893323 8.79999978 10.32079974 0 3.19639992-2.41599994 5.5213332-5.69999986 5.5213332-2.2066666 0-3.99733323-.5964-5.69866652-1.8833333v-3.6983999c1.49599996 1.91346662 3.37199992 2.95573326 5.3693332 2.95573326 2.2666666 0 3.31199992-1.4333333 3.31199992-2.56719994 0-4.2067999-8.79733312-4.68493321-8.79733312-10.2646664 0-3.30933326 2.4466666-5.4285332 6.17333318-5.4285332 1.5573333 0 3.10399992.47906665 4.53599989 1.4369333v3.30733324m22.80666609 15.87239961h-4.02666656l-10.35733308-10.05319975V120.013071h-2.92933326V99.66453817h2.92933326v9.31466644l8.56133312-9.31466644h3.64933325l-8.86666645 9.6385331 11.03999972 10.70999973m13.91599966-24.82346605l-3.85066657 3.49159991h-1.7613333l2.23866662-3.49159991zm1.40399996 7.09999982h-8.62666645v6.15106652h8.32133313v2.61919993h-8.32133313v6.33333318h8.89066645v2.6198666h-11.8159997V99.66453817h11.5519997v2.6250666m22.25866611 6.27026651h1.88266662c3.12933326 0 4.02933323-1.61866662 3.9959999-3.31506658-.028-1.91146662-1.1613333-3.0718666-3.9959999-3.0718666h-1.88266662zm2.20933328-8.8953331c4.1159999 0 6.68533317 2.1802666 6.68533317 5.69639985 0 2.35933327-1.22266664 4.12133323-3.40266659 4.98386654 1.85066663 1.22546664 2.9826666 3.10466659 4.53866656 5.64266653.86133331 1.4057333 1.36666663 2.08853328 2.77333326 4.0255999h-3.48933324l-2.69333327-4.17706657c-2.6826666-4.17666656-3.9039999-4.65626655-5.3973332-4.65626655h-1.22399997v8.83333312h-2.92533326V99.66453817h5.13466654m25.87999935 2.6250666h-8.62133311v6.15106652h8.32266645v2.61919993h-8.32266645v6.33333318h8.89066644v2.6198666h-11.81333304V99.66453817h11.54399971v2.6250666m7.64533315 6.29479985h3.31066658c2.18399994 0 3.58533324-1.1625333 3.58533324-3.1906666 0-1.49159995-.81066664-3.10413325-3.46533324-3.10413325h-3.43066658zm3.43066658-8.91986645c4.44799989 0 6.4746665 2.6250666 6.4746665 5.84853319 0 3.18799992-2.14666661 5.70146652-6.85599983 5.70146652h-3.04933325v8.79853312h-2.9226666V99.66453817h6.35333318m27.60933264 12.35106636c0 4.98279988-2.98133326 8.2671998-9.03599977 8.2671998-4.2959999 0-8.4719998-2.42186661-8.4719998-7.96306647V99.66453817h2.9186666v12.02186637c0 2.30373327.304 3.25426658 1.2253333 4.17973323 1.17066664 1.16559997 2.6266666 1.72973329 4.38533323 1.72973329 2.2426666 0 3.84533323-.71306665 4.77466654-1.63799996 1.04666664-1.04746664 1.28399997-2.5370666 1.28399997-4.44853322v-11.8447997h2.91999993v12.35106635m8.45733312 5.37759987h3.67199991c3.43733325 0 4.3599999-1.70879996 4.3599999-3.22813326-1e-8-1.84533328-1.43466664-3.16093325-4.51333323-3.16093325h-3.51866658zm0-9.01826645h1.94266662c2.8906666 0 4.29733323-1.07226664 4.29733323-3.25359991 0-1.51826663-.86799998-2.83173327-3.55333325-2.83173327h-2.6866666zm-2.92399993-8.71039978h5.91199986c4.38266655 0 6.26799984 2.6250666 6.26799984 5.1933332 0 2.11866662-.98666664 3.48639992-3.10266659 4.35413323v.06093333c3.03599992.56346665 4.88799988 2.5686666 4.88799988 5.31146654 0 2.50773327-1.87333329 5.42866653-6.9826665 5.42866653h-6.98266649V99.66453817m21.19866614 17.72866623h9.19199977v2.6198666h-12.11066636V99.66453817h2.9186666v17.72866623m16.18133292 2.6198666h-2.9266666V99.66453817h2.9266666V120.013071m23.30799942 0h-4.02266657l-10.35733307-10.05319975V120.013071h-2.92133326V99.66453817h2.92133326v9.31466644l8.56533312-9.31466644h3.63466657l-8.86533311 9.6385331 11.04533306 10.70999973m16.03733293-20.34853283h3.52133324l-7.55466647 9.60839976V120.013071h-2.92533326v-10.77039973l-7.54533315-9.5781331h3.51999991l5.4613332 7.0094665 5.52266653-7.0094665"/>
  <path fill="#27b5ef" d="M15.55933294 7.7866738c-.0052 4.29866656-3.48954658 7.77733314-7.78277313 7.77733314C3.4765599 15.55334027-.00520833 12.0746737 0 7.77200714 0 3.46800724 3.49426658-.01065934 7.78697314-.005326c4.2937599.00133333 7.77702647 3.48799991 7.7723598 7.7919998m192.40999519 0c-.00533333 4.29866656-3.49466658 7.77733314-7.7879998 7.77733314-4.29733323-.01066667-7.78133314-3.48933325-7.77733314-7.7919998.00533333-4.3039999 3.49466658-7.78266648 7.7919998-7.77733314 4.29466656.00133333 7.77333314 3.48799991 7.77333314 7.7919998M15.55933294 31.83853987c-.0052 4.29533322-3.48954658 7.77653314-7.78277313 7.77186647C3.4765599 39.60520634-.00520833 36.12080643 0 31.8234732c0-4.30573322 3.49426658-7.78213314 7.78697314-7.7767998 4.2937599.00533333 7.77702647 3.4855999 7.7723598 7.79186647m24.05106607 0c-.002 4.29533322-3.49106658 7.77653314-7.7843998 7.77186647-4.29786656-.0052-7.78226648-3.48959991-7.77706648-7.78693314.00573334-4.30573322 3.49373325-7.78213314 7.79013314-7.7767998 4.29533323.00533333 7.77453314 3.4855999 7.77133314 7.79186647m144.30426306 0c0 4.29533322-3.48933325 7.77653314-7.78266647 7.77186647-4.29866656-.0052-7.78133314-3.48959991-7.77733314-7.78693314 0-4.30573322 3.49466658-7.78213314 7.7879998-7.7767998 4.29333323.00533333 7.77733314 3.4855999 7.7719998 7.79186647m24.05466607 0c-.00533333 4.29533322-3.49466658 7.77653314-7.7879998 7.77186647-4.29733323-.0052-7.78133314-3.48959991-7.77733314-7.78693314.00533333-4.30573322 3.49466658-7.78213314 7.7919998-7.7767998 4.29466656.00533333 7.77333314 3.4855999 7.77333314 7.79186647M15.55933294 55.88693927c-.0052 4.29853322-3.48954658 7.7775998-7.78277313 7.7775998C3.4765599 63.65680574-.00520833 60.17400583 0 55.87240593c0-4.30266656 3.49426658-7.78173314 7.78697314-7.7723998 4.2937599 0 7.77702647 3.48439991 7.7723598 7.78693314m24.05106607 0c-.002 4.29853322-3.49106658 7.7775998-7.7843998 7.7775998-4.29786656-.00773333-7.78226648-3.49053324-7.77706648-7.79213314.00573334-4.30266656 3.49373325-7.78173314 7.79013314-7.7723998 4.29533323 0 7.77453314 3.48439991 7.77133314 7.78693314m24.04839939 0c0 4.29853322-3.48906657 7.7775998-7.7827998 7.7775998-4.29626656-.00773333-7.78013314-3.49053324-7.77493314-7.79213314.00253334-4.30266656 3.49106658-7.78173314 7.79066648-7.7723998 4.29266656 0 7.77226647 3.48439991 7.76706647 7.78693314m96.20653093 0c-.00533334 4.29853322-3.49466658 7.7775998-7.78266648 7.7775998-4.29866655-.00773333-7.78133313-3.49053324-7.77733313-7.79213314 0-4.30266656 3.49066658-7.78173314 7.7879998-7.7723998 4.29333323 0 7.7719998 3.48439991 7.7719998 7.78693314m24.04933274 0c0 4.29853322-3.48933325 7.7775998-7.78266647 7.7775998-4.29866656-.00773333-7.78133314-3.49053324-7.77733314-7.79213314 0-4.30266656 3.49466658-7.78173314 7.7879998-7.7723998 4.29333323 0 7.77733314 3.48439991 7.7719998 7.78693314m24.05466607 0c-.00533333 4.29853322-3.49466658 7.7775998-7.7879998 7.7775998-4.29733323-.00773333-7.78133314-3.49053324-7.77733314-7.79213314.00533333-4.30266656 3.49466658-7.78173314 7.7919998-7.7723998 4.29466656 0 7.77333314 3.48439991 7.77333314 7.78693314M15.55933294 79.93640533c-.0052 4.30053323-3.48954658 7.78026647-7.78277313 7.7771998C3.4765599 87.70880514-.00520833 84.22240524 0 79.927072c0-4.3087999 3.49426658-7.7827998 7.78697314-7.7775998 4.2937599 0 7.77702647 3.4843999 7.7723598 7.78693313m24.05106607 0c-.002 4.30053323-3.49106658 7.78026647-7.7843998 7.7771998-4.29786656-.0048-7.78226648-3.4911999-7.77706648-7.78653313.00573334-4.3087999 3.49373325-7.7827998 7.79013314-7.7775998 4.29533323 0 7.77453314 3.4843999 7.77133314 7.78693313m24.04839939 0c0 4.30053323-3.48906657 7.78026647-7.7827998 7.7771998-4.29626656-.0048-7.78013314-3.4911999-7.77493314-7.78653313.00253334-4.3087999 3.49106658-7.7827998 7.79066648-7.7775998 4.29266656 0 7.77226647 3.4843999 7.76706647 7.78693313m24.05426606 0c-.0052 4.30053323-3.48906658 7.78026647-7.7823998 7.7771998-4.29786656-.0048-7.78226647-3.4911999-7.77706647-7.78653313 0-4.3087999 3.48906658-7.7827998 7.78706647-7.7775998 4.2983999 0 7.7775998 3.4843999 7.7723998 7.78693313m48.10293213 0c-.00533333 4.30053323-3.4935999 7.78026647-7.7867998 7.7771998-4.2979999-.0048-7.78226647-3.4911999-7.77706647-7.78653313.0052-4.3087999 3.49426658-7.7827998 7.79213314-7.7775998 4.29266655 0 7.77173313 3.4843999 7.77173313 7.78693313m24.04933274 0c-.00533334 4.30053323-3.49466658 7.78026647-7.78266648 7.7771998-4.29866655-.0048-7.78133313-3.4911999-7.77733313-7.78653313 0-4.3087999 3.49066658-7.7827998 7.7879998-7.7775998 4.29333323 0 7.7719998 3.4843999 7.7719998 7.78693313m24.04933274 0c0 4.30053323-3.48933325 7.78026647-7.78266647 7.7771998-4.29866656-.0048-7.78133314-3.4911999-7.77733314-7.78653313 0-4.3087999 3.49466658-7.7827998 7.7879998-7.7775998 4.29333323 0 7.77733314 3.4843999 7.7719998 7.78693313m24.05466607 0c-.00533333 4.30053323-3.49466658 7.78026647-7.7879998 7.7771998-4.29733323-.0048-7.78133314-3.4911999-7.77733314-7.78653313.00533333-4.3087999 3.49466658-7.7827998 7.7919998-7.7775998 4.29466656 0 7.77333314 3.4843999 7.77333314 7.78693313M15.55933294 103.9906714c-.0052 4.29573322-3.48954658 7.77386647-7.78277313 7.7723998-4.2999999-.0048-7.78176814-3.48906658-7.77655981-7.7875998 0-4.30573323 3.49426658-7.78226647 7.78697314-7.77653314 4.2937599 0 7.77702647 3.48653324 7.7723598 7.79173314m24.05106607 0c-.002 4.29573322-3.49106658 7.77386647-7.7843998 7.7723998-4.29786656-.0048-7.78226648-3.48906658-7.77706648-7.7875998.00573334-4.30573323 3.49373325-7.78226647 7.79013314-7.77653314 4.29533323 0 7.77453314 3.48653324 7.77133314 7.79173314m24.04839939 0c0 4.29573322-3.48906657 7.77386647-7.7827998 7.7723998-4.29626656-.0048-7.78013314-3.48906658-7.77493314-7.7875998.00253334-4.30573323 3.49106658-7.78226647 7.79066648-7.77653314 4.29266656 0 7.77226647 3.48653324 7.76706647 7.79173314m24.05426606 0c-.0052 4.29573322-3.48906658 7.77386647-7.7823998 7.7723998-4.29786656-.0048-7.78226647-3.48906658-7.77706647-7.7875998 0-4.30573323 3.48906658-7.78226647 7.78706647-7.77653314 4.2983999 0 7.7775998 3.48653324 7.7723998 7.79173314m24.04946607 0c-.0052 4.29573322-3.48959991 7.77386647-7.7827998 7.7723998-4.2979999-.0048-7.78186648-3.48906658-7.77666648-7.7875998 0-4.30573323 3.49426658-7.78226647 7.78706647-7.77653314 4.29213323 0 7.77706648 3.48653324 7.7723998 7.79173314m24.05346607 0c-.00533333 4.29573322-3.4935999 7.77386647-7.7867998 7.7723998-4.2979999-.0048-7.78226647-3.48906658-7.77706647-7.7875998.0052-4.30573323 3.49426658-7.78226647 7.79213314-7.77653314 4.29266655 0 7.77173313 3.48653324 7.77173313 7.79173314m24.04933274 0c-.00533334 4.29573322-3.49466658 7.77386647-7.78266648 7.7723998-4.29866655-.0048-7.78133313-3.48906658-7.77733313-7.7875998 0-4.30573323 3.49066658-7.78226647 7.7879998-7.77653314 4.29333323 0 7.7719998 3.48653324 7.7719998 7.79173314m24.04933274 0c0 4.29573322-3.48933325 7.77386647-7.78266647 7.7723998-4.29866656-.0048-7.78133314-3.48906658-7.77733314-7.7875998 0-4.30573323 3.49466658-7.78226647 7.7879998-7.77653314 4.29333323 0 7.77733314 3.48653324 7.7719998 7.79173314m24.05466607 0c-.00533333 4.29573322-3.49466658 7.77386647-7.7879998 7.7723998-4.29733323-.0048-7.78133314-3.48906658-7.77733314-7.7875998.00533333-4.30573323 3.49466658-7.78226647 7.7919998-7.77653314 4.29466656 0 7.77333314 3.48653324 7.77333314 7.79173314M15.55933294 128.04013746c-.0052 4.2983999-3.48954658 7.77706647-7.78277313 7.7743998-4.2999999-.0052-7.78176814-3.48746657-7.77655981-7.7899998 0-4.30319989 3.49426658-7.77866647 7.78697314-7.77666647 4.2937599.0048 7.77702647 3.48906658 7.7723598 7.79226647m24.05106607 0c-.002 4.2983999-3.49106658 7.77706647-7.7843998 7.7743998-4.29786656-.0052-7.78226648-3.48746657-7.77706648-7.7899998.00573334-4.30319989 3.49373325-7.77866647 7.79013314-7.77666647 4.29533323.0048 7.77453314 3.48906658 7.77133314 7.79226647m24.04839939 0c0 4.2983999-3.48906657 7.77706647-7.7827998 7.7743998-4.29626656-.0052-7.78013314-3.48746657-7.77493314-7.7899998.00253334-4.30319989 3.49106658-7.77866647 7.79066648-7.77666647 4.29266656.0048 7.77226647 3.48906658 7.76706647 7.79226647m24.05426606 0c-.0052 4.2983999-3.48906658 7.77706647-7.7823998 7.7743998-4.29786656-.0052-7.78226647-3.48746657-7.77706647-7.7899998 0-4.30319989 3.48906658-7.77866647 7.78706647-7.77666647 4.2983999.0048 7.7775998 3.48906658 7.7723998 7.79226647m24.04946607 0c-.0052 4.2983999-3.48959991 7.77706647-7.7827998 7.7743998-4.2979999-.0052-7.78186648-3.48746657-7.77666648-7.7899998 0-4.30319989 3.49426658-7.77866647 7.78706647-7.77666647 4.29213323.0048 7.77706648 3.48906658 7.7723998 7.79226647m24.05346607 0c-.00533333 4.2983999-3.4935999 7.77706647-7.7867998 7.7743998-4.2979999-.0052-7.78226647-3.48746657-7.77706647-7.7899998.0052-4.30319989 3.49426658-7.77866647 7.79213314-7.77666647 4.29266655.0048 7.77173313 3.48906658 7.77173313 7.79226647m24.04933274 0c-.00533334 4.2983999-3.49466658 7.77706647-7.78266648 7.7743998-4.29866655-.0052-7.78133313-3.48746657-7.77733313-7.7899998 0-4.30319989 3.49066658-7.77866647 7.7879998-7.77666647 4.29333323.0048 7.7719998 3.48906658 7.7719998 7.79226647m24.04933274 0c0 4.2983999-3.48933325 7.77706647-7.78266647 7.7743998-4.29866656-.0052-7.78133314-3.48746657-7.77733314-7.7899998 0-4.30319989 3.49466658-7.77866647 7.7879998-7.77666647 4.29333323.0048 7.77733314 3.48906658 7.7719998 7.79226647m24.05466607 0c-.00533333 4.2983999-3.49466658 7.77706647-7.7879998 7.7743998-4.29733323-.0052-7.78133314-3.48746657-7.77733314-7.7899998.00533333-4.30319989 3.49466658-7.77866647 7.7919998-7.77666647 4.29466656.0048 7.77333314 3.48906658 7.77333314 7.79226647M15.55933294 152.0890702c-.0052 4.29738655-3.48954658 7.7775998-7.78277313 7.7775998C3.4765599 159.8588575-.00520833 156.37708342 0 152.07708353c0-4.30625323 3.49426658-7.7822798 7.78697314-7.77441314 4.2937599.00146667 7.77702647 3.48274658 7.7723598 7.7863998m24.05106607 1e-8c-.002 4.29738655-3.49106658 7.7775998-7.7843998 7.7775998-4.29786656-.0078125-7.78226648-3.48958658-7.77706648-7.78958647.00573334-4.30625323 3.49373325-7.7822798 7.79013314-7.77441314 4.29533323.00146667 7.77453314 3.48274658 7.77133314 7.7863998m24.04839939 1e-8c0 4.29738655-3.48906657 7.7775998-7.7827998 7.7775998-4.29626656-.0078125-7.78013314-3.48958658-7.77493314-7.78958647.00253334-4.30625323 3.49106658-7.7822798 7.79066648-7.77441314 4.29266656.00146667 7.77226647 3.48274658 7.76706647 7.7863998m24.05426606 1e-8c-.0052 4.29738655-3.48906658 7.7775998-7.7823998 7.7775998-4.29786656-.0078125-7.78226647-3.48958658-7.77706647-7.78958647 0-4.30625323 3.48906658-7.7822798 7.78706647-7.77441314 4.2983999.00146667 7.7775998 3.48274658 7.7723998 7.7863998m24.04946607 1e-8c-.0052 4.29738655-3.48959991 7.7775998-7.7827998 7.7775998-4.2979999-.0078125-7.78186648-3.48958658-7.77666648-7.78958647 0-4.30625323 3.49426658-7.7822798 7.78706647-7.77441314 4.29213323.00146667 7.77706648 3.48274658 7.7723998 7.7863998m24.05346607 1e-8c-.00533333 4.29738655-3.4935999 7.7775998-7.7867998 7.7775998-4.2979999-.0078125-7.78226647-3.48958658-7.77706647-7.78958647.0052-4.30625323 3.49426658-7.7822798 7.79213314-7.77441314 4.29266655.00146667 7.77173313 3.48274658 7.77173313 7.7863998m24.04933274 1e-8c-.00533334 4.29738655-3.49466658 7.7775998-7.78266648 7.7775998-4.29866655-.0078125-7.78133313-3.48958658-7.77733313-7.78958647 0-4.30625323 3.49066658-7.7822798 7.7879998-7.77441314 4.29333323.00146667 7.7719998 3.48274658 7.7719998 7.7863998m24.04933274 1e-8c0 4.29738655-3.48933325 7.7775998-7.78266647 7.7775998-4.29866656-.0078125-7.78133314-3.48958658-7.77733314-7.78958647 0-4.30625323 3.49466658-7.7822798 7.7879998-7.77441314 4.29333323.00146667 7.77733314 3.48274658 7.7719998 7.7863998m24.05466607 1e-8c-.00533333 4.29738655-3.49466658 7.7775998-7.7879998 7.7775998-4.29733323-.0078125-7.78133314-3.48958658-7.77733314-7.78958647.00533333-4.30625323 3.49466658-7.7822798 7.7919998-7.77441314 4.29466656.00146667 7.77333314 3.48274658 7.77333314 7.7863998"/>
</svg>
